<?plantuml 1.2026.2?><svg xmlns="http://www.w3.org/2000/svg" xmlns:xlink="http://www.w3.org/1999/xlink" contentStyleType="text/css" data-diagram-type="DESCRIPTION" height="1418px" preserveAspectRatio="none" style="width:2019px;height:1418px;background:#FEFEFE;" version="1.1" viewBox="0 0 2019 1418" width="2019px" zoomAndPan="magnify"><title>Shoggoth Plugin System &#8212; Hook-Driven Architecture</title><defs/><g><rect fill="#FEFEFE" height="1418" style="stroke:none;stroke-width:1;" width="2019" x="0" y="0"/><g class="title" data-source-line="7"><text fill="#000000" font-family="Verdana" font-size="22" font-weight="bold" lengthAdjust="spacing" textLength="658.1523" x="676.0788" y="39.4209">Shoggoth Plugin System &#8212; Hook-Driven Architecture</text></g><!--cluster core--><g class="cluster" data-qualified-name="core" data-source-line="9" id="ent0002"><path d="M13.5,249.4094 L105.709,249.4094 A3.75,3.75 0 0 1 108.209,251.9094 L115.209,276.2141 L537.5,276.2141 A2.5,2.5 0 0 1 540,278.7141 L540,877.5394 A2.5,2.5 0 0 1 537.5,880.0394 L13.5,880.0394 A2.5,2.5 0 0 1 11,877.5394 L11,251.9094 A2.5,2.5 0 0 1 13.5,249.4094" fill="#FFFFFF" style="stroke:#000000;stroke-width:1;"/><line style="stroke:#000000;stroke-width:1;" x1="11" x2="115.209" y1="276.2141" y2="276.2141"/><text fill="#000000" font-family="Verdana" font-size="11" font-weight="bold" lengthAdjust="spacing" textLength="83.209" x="19" y="265.6198">Daemon Core</text></g><!--cluster pres--><g class="cluster" data-qualified-name="pres" data-source-line="21" id="ent0012"><path d="M566.5,65.6094 L693.7017,65.6094 A3.75,3.75 0 0 1 696.2017,68.1094 L703.2017,92.4141 L1043.5,92.4141 A2.5,2.5 0 0 1 1046,94.9141 L1046,372.1194 A2.5,2.5 0 0 1 1043.5,374.6194 L566.5,374.6194 A2.5,2.5 0 0 1 564,372.1194 L564,68.1094 A2.5,2.5 0 0 1 566.5,65.6094" fill="#FFFFFF" style="stroke:#000000;stroke-width:1;"/><line style="stroke:#000000;stroke-width:1;" x1="564" x2="703.2017" y1="92.4141" y2="92.4141"/><text fill="#000000" font-family="Verdana" font-size="11" font-weight="bold" lengthAdjust="spacing" textLength="118.2017" x="572" y="81.8198">Presentation Layer</text></g><!--cluster discord--><g class="cluster" data-qualified-name="discord" data-source-line="28" id="ent0017"><path d="M802.5,508.2194 L962.5566,508.2194 A3.75,3.75 0 0 1 965.0566,510.7194 L972.0566,535.0241 L1560.5,535.0241 A2.5,2.5 0 0 1 1563,537.5241 L1563,1005.3394 A2.5,2.5 0 0 1 1560.5,1007.8394 L802.5,1007.8394 A2.5,2.5 0 0 1 800,1005.3394 L800,510.7194 A2.5,2.5 0 0 1 802.5,508.2194" fill="#FFFFFF" style="stroke:#000000;stroke-width:1;"/><line style="stroke:#000000;stroke-width:1;" x1="800" x2="972.0566" y1="535.0241" y2="535.0241"/><text fill="#000000" font-family="Verdana" font-size="11" font-weight="bold" lengthAdjust="spacing" textLength="151.0566" x="808" y="524.4298">Plugin: platform-discord</text></g><!--cluster telegram--><g class="cluster" data-qualified-name="telegram" data-source-line="38" id="ent0025"><path d="M1605.5,488.6194 L1776.1216,488.6194 A3.75,3.75 0 0 1 1778.6216,491.1194 L1785.6216,528.2288 L1908.5,528.2288 A2.5,2.5 0 0 1 1911,530.7288 L1911,885.5394 A2.5,2.5 0 0 1 1908.5,888.0394 L1605.5,888.0394 A2.5,2.5 0 0 1 1603,885.5394 L1603,491.1194 A2.5,2.5 0 0 1 1605.5,488.6194" fill="#EEEEEE" style="stroke:#000000;stroke-width:1;"/><line style="stroke:#000000;stroke-width:1;" x1="1603" x2="1785.6216" y1="528.2288" y2="528.2288"/><text fill="#000000" font-family="Verdana" font-size="11" font-weight="bold" lengthAdjust="spacing" textLength="161.6216" x="1611" y="504.8298">Plugin: platform-telegram</text><text fill="#000000" font-family="Verdana" font-size="11" font-weight="bold" lengthAdjust="spacing" textLength="48.646" x="1667.4878" y="517.6345">(future)</text></g><!--cluster obs--><g class="cluster" data-qualified-name="obs" data-source-line="44" id="ent0029"><path d="M574.5,720.8294 L711.939,720.8294 A3.75,3.75 0 0 1 714.439,723.3294 L721.439,760.4388 L757.5,760.4388 A2.5,2.5 0 0 1 760,762.9388 L760,879.1294 A2.5,2.5 0 0 1 757.5,881.6294 L574.5,881.6294 A2.5,2.5 0 0 1 572,879.1294 L572,723.3294 A2.5,2.5 0 0 1 574.5,720.8294" fill="#EEEEEE" style="stroke:#000000;stroke-width:1;"/><line style="stroke:#000000;stroke-width:1;" x1="572" x2="721.439" y1="760.4388" y2="760.4388"/><text fill="#000000" font-family="Verdana" font-size="11" font-weight="bold" lengthAdjust="spacing" textLength="128.439" x="580" y="737.0398">Plugin: observability</text><text fill="#000000" font-family="Verdana" font-size="11" font-weight="bold" lengthAdjust="spacing" textLength="48.646" x="619.8965" y="749.8445">(future)</text></g><!--entity boot--><g class="entity" data-qualified-name="core.boot" data-source-line="10" id="ent0003"><rect fill="#FFFFFF" height="40.8047" rx="2.5" ry="2.5" style="stroke:#000000;stroke-width:1;" width="111.0747" x="27.46" y="311.4094"/><text fill="#000000" font-family="Verdana" font-size="11" lengthAdjust="spacing" textLength="83.0747" x="41.46" y="335.6198">Boot Sequence</text></g><!--entity plsys--><g class="entity" data-qualified-name="core.plsys" data-source-line="11" id="ent0004"><rect fill="#FFFFFF" height="40.8047" rx="2.5" ry="2.5" style="stroke:#000000;stroke-width:1;" width="155.354" x="120.32" y="584.6194"/><text fill="#000000" font-family="Verdana" font-size="11" lengthAdjust="spacing" textLength="127.354" x="134.32" y="608.8298">ShoggothPluginSystem</text></g><!--entity db--><g class="entity" data-qualified-name="core.db" data-source-line="12" id="ent0005"><rect fill="#FFFFFF" height="40.8047" rx="2.5" ry="2.5" style="stroke:#000000;stroke-width:1;" width="76.6299" x="310.69" y="584.6194"/><text fill="#000000" font-family="Verdana" font-size="11" lengthAdjust="spacing" textLength="48.6299" x="324.69" y="608.8298">State DB</text></g><!--entity cp--><g class="entity" data-qualified-name="core.cp" data-source-line="13" id="ent0006"><rect fill="#FFFFFF" height="40.8047" rx="2.5" ry="2.5" style="stroke:#000000;stroke-width:1;" width="101.6699" x="422.17" y="584.6194"/><text fill="#000000" font-family="Verdana" font-size="11" lengthAdjust="spacing" textLength="73.6699" x="436.17" y="608.8298">Control Plane</text></g><!--entity tq--><g class="entity" data-qualified-name="core.tq" data-source-line="14" id="ent0007"><rect fill="#FFFFFF" height="40.8047" rx="2.5" ry="2.5" style="stroke:#000000;stroke-width:1;" width="92.8184" x="173.59" y="311.4094"/><text fill="#000000" font-family="Verdana" font-size="11" lengthAdjust="spacing" textLength="64.8184" x="187.59" y="335.6198">Turn Queue</text></g><!--entity pe--><g class="entity" data-qualified-name="core.pe" data-source-line="15" id="ent0008"><rect fill="#FFFFFF" height="40.8047" rx="2.5" ry="2.5" style="stroke:#000000;stroke-width:1;" width="101.2295" x="301.39" y="311.4094"/><text fill="#000000" font-family="Verdana" font-size="11" lengthAdjust="spacing" textLength="73.2295" x="315.39" y="335.6198">Policy Engine</text></g><!--entity hitl--><g class="entity" data-qualified-name="core.hitl" data-source-line="16" id="ent0009"><rect fill="#FFFFFF" height="40.8047" rx="2.5" ry="2.5" style="stroke:#000000;stroke-width:1;" width="86.314" x="437.84" y="311.4094"/><text fill="#000000" font-family="Verdana" font-size="11" lengthAdjust="spacing" textLength="58.314" x="451.84" y="335.6198">HITL Stack</text></g><!--entity hr--><g class="entity" data-qualified-name="core.hr" data-source-line="17" id="ent0010"><rect fill="#FFFFFF" height="40.8047" rx="2.5" ry="2.5" style="stroke:#000000;stroke-width:1;" width="113.1426" x="46.43" y="816.8294"/><text fill="#000000" font-family="Verdana" font-size="11" lengthAdjust="spacing" textLength="85.1426" x="60.43" y="841.0398">Health Registry</text></g><!--entity sc--><g class="entity" data-qualified-name="core.sc" data-source-line="18" id="ent0011"><rect fill="#FFFFFF" height="53.6094" rx="2.5" ry="2.5" style="stroke:#000000;stroke-width:1;" width="92.9795" x="194.51" y="810.4294"/><text fill="#000000" font-family="Verdana" font-size="11" lengthAdjust="spacing" textLength="54.9194" x="208.51" y="834.6398">Shutdown</text><text fill="#000000" font-family="Verdana" font-size="11" lengthAdjust="spacing" textLength="64.9795" x="208.51" y="847.4445">Coordinator</text></g><!--entity to--><g class="entity" data-qualified-name="pres.to" data-source-line="22" id="ent0013"><rect fill="#FFFFFF" height="40.8047" rx="2.5" ry="2.5" style="stroke:#000000;stroke-width:1;" width="126.522" x="579.74" y="127.6094"/><text fill="#000000" font-family="Verdana" font-size="11" lengthAdjust="spacing" textLength="98.522" x="593.74" y="151.8198">Turn Orchestrator</text></g><!--entity rf--><g class="entity" data-qualified-name="pres.rf" data-source-line="23" id="ent0014"><rect fill="#FFFFFF" height="40.8047" rx="2.5" ry="2.5" style="stroke:#000000;stroke-width:1;" width="117.4072" x="741.3" y="127.6094"/><text fill="#000000" font-family="Verdana" font-size="11" lengthAdjust="spacing" textLength="89.4072" x="755.3" y="151.8198">Reply Formatter</text></g><!--entity stc--><g class="entity" data-qualified-name="pres.stc" data-source-line="24" id="ent0015"><rect fill="#FFFFFF" height="40.8047" rx="2.5" ry="2.5" style="stroke:#000000;stroke-width:1;" width="136.5176" x="893.74" y="127.6094"/><text fill="#000000" font-family="Verdana" font-size="11" lengthAdjust="spacing" textLength="108.5176" x="907.74" y="151.8198">Stream Coordinator</text></g><!--entity pai--><g class="entity" data-qualified-name="pres.pai" data-source-line="25" id="ent0016"><rect fill="#FFFFFF" height="53.6094" rx="2.5" ry="2.5" style="stroke:#000000;stroke-width:1;" width="121.9136" x="853.04" y="305.0094"/><text fill="#000000" font-family="Verdana" font-size="11" lengthAdjust="spacing" textLength="93.9136" x="867.04" y="329.2198">Platform Adapter</text><text fill="#000000" font-family="Verdana" font-size="11" lengthAdjust="spacing" textLength="49.2476" x="867.04" y="342.0245">Interface</text></g><!--entity gw--><g class="entity" data-qualified-name="discord.gw" data-source-line="29" id="ent0018"><rect fill="#FFFFFF" height="40.8047" rx="2.5" ry="2.5" style="stroke:#000000;stroke-width:1;" width="111.9341" x="832.03" y="816.8294"/><text fill="#000000" font-family="Verdana" font-size="11" lengthAdjust="spacing" textLength="83.9341" x="846.03" y="841.0398">Gateway Client</text></g><!--entity rest--><g class="entity" data-qualified-name="discord.rest" data-source-line="30" id="ent0019"><rect fill="#FFFFFF" height="40.8047" rx="2.5" ry="2.5" style="stroke:#000000;stroke-width:1;" width="113.0244" x="923.49" y="943.0394"/><text fill="#000000" font-family="Verdana" font-size="11" lengthAdjust="spacing" textLength="85.0244" x="937.49" y="967.2498">REST Transport</text></g><!--entity dpa--><g class="entity" data-qualified-name="discord.dpa" data-source-line="31" id="ent0020"><rect fill="#FFFFFF" height="53.6094" rx="2.5" ry="2.5" style="stroke:#000000;stroke-width:1;" width="119.6201" x="945.19" y="578.2194"/><text fill="#000000" font-family="Verdana" font-size="11" lengthAdjust="spacing" textLength="91.6201" x="959.19" y="602.4298">Discord Platform</text><text fill="#000000" font-family="Verdana" font-size="11" lengthAdjust="spacing" textLength="43.8335" x="959.19" y="615.2345">Adapter</text></g><!--entity hitlr--><g class="entity" data-qualified-name="discord.hitlr" data-source-line="32" id="ent0021"><rect fill="#FFFFFF" height="40.8047" rx="2.5" ry="2.5" style="stroke:#000000;stroke-width:1;" width="109.8608" x="1016.07" y="816.8294"/><text fill="#000000" font-family="Verdana" font-size="11" lengthAdjust="spacing" textLength="81.8608" x="1030.07" y="841.0398">HITL Reactions</text></g><!--entity slash--><g class="entity" data-qualified-name="discord.slash" data-source-line="33" id="ent0022"><rect fill="#FFFFFF" height="40.8047" rx="2.5" ry="2.5" style="stroke:#000000;stroke-width:1;" width="123.2456" x="1161.38" y="816.8294"/><text fill="#000000" font-family="Verdana" font-size="11" lengthAdjust="spacing" textLength="95.2456" x="1175.38" y="841.0398">Slash Commands</text></g><!--entity stream--><g class="entity" data-qualified-name="discord.stream" data-source-line="34" id="ent0023"><rect fill="#FFFFFF" height="40.8047" rx="2.5" ry="2.5" style="stroke:#000000;stroke-width:1;" width="85.0518" x="1319.47" y="816.8294"/><text fill="#000000" font-family="Verdana" font-size="11" lengthAdjust="spacing" textLength="57.0518" x="1333.47" y="841.0398">Streaming</text></g><!--entity dhp--><g class="entity" data-qualified-name="discord.dhp" data-source-line="35" id="ent0024"><rect fill="#FFFFFF" height="40.8047" rx="2.5" ry="2.5" style="stroke:#000000;stroke-width:1;" width="99.2529" x="1439.37" y="816.8294"/><text fill="#000000" font-family="Verdana" font-size="11" lengthAdjust="spacing" textLength="71.2529" x="1453.37" y="841.0398">Health Probe</text></g><!--entity tbot--><g class="entity" data-qualified-name="telegram.tbot" data-source-line="39" id="ent0026"><rect fill="#EEEEEE" height="40.8047" rx="2.5" ry="2.5" style="stroke:#000000;stroke-width:1;" width="102.8301" x="1626.58" y="584.6194"/><text fill="#000000" font-family="Verdana" font-size="11" lengthAdjust="spacing" textLength="74.8301" x="1640.58" y="608.8298">Bot API Client</text></g><!--entity tpa--><g class="entity" data-qualified-name="telegram.tpa" data-source-line="40" id="ent0027"><rect fill="#EEEEEE" height="53.6094" rx="2.5" ry="2.5" style="stroke:#000000;stroke-width:1;" width="130.3516" x="1681.82" y="810.4294"/><text fill="#000000" font-family="Verdana" font-size="11" lengthAdjust="spacing" textLength="102.3516" x="1695.82" y="834.6398">Telegram Platform</text><text fill="#000000" font-family="Verdana" font-size="11" lengthAdjust="spacing" textLength="43.8335" x="1695.82" y="847.4445">Adapter</text></g><!--entity thp--><g class="entity" data-qualified-name="telegram.thp" data-source-line="41" id="ent0028"><rect fill="#EEEEEE" height="40.8047" rx="2.5" ry="2.5" style="stroke:#000000;stroke-width:1;" width="102.7495" x="1764.63" y="584.6194"/><text fill="#000000" font-family="Verdana" font-size="11" lengthAdjust="spacing" textLength="71.2529" x="1778.63" y="608.8298">Health Probe</text></g><!--entity mc--><g class="entity" data-qualified-name="obs.mc" data-source-line="45" id="ent0030"><rect fill="#EEEEEE" height="40.8047" rx="2.5" ry="2.5" style="stroke:#000000;stroke-width:1;" width="120.3291" x="615.84" y="816.8294"/><text fill="#000000" font-family="Verdana" font-size="11" lengthAdjust="spacing" textLength="92.3291" x="629.84" y="841.0398">Metrics Collector</text></g><!--link boot to plsys--><g class="link" data-entity-1="ent0003" data-entity-2="ent0004" data-link-type="dependency" data-source-line="49" id="lnk31"><path d="M91.27,352.3194 C112.44,402.2394 166.0579,528.6854 187.3079,578.8054" fill="none" id="boot-to-plsys" style="stroke:#000000;stroke-width:1;"/><polygon fill="#000000" points="189.65,584.3294,189.8195,574.482,187.6983,579.726,182.4542,577.6048,189.65,584.3294" style="stroke:#000000;stroke-width:1;"/><text fill="#000000" font-family="Verdana" font-size="11" lengthAdjust="spacing" textLength="40.8901" x="142.05" y="431.8298">creates</text></g><!--link plsys to discord--><g class="link" data-entity-1="ent0004" data-entity-2="ent0017" data-link-type="dependency" data-source-line="51" id="lnk32"><path d="M200.6,584.2194 C206.47,547.1694 224.53,470.5794 276,437.7894 C317.23,411.5194 337.41,432.3594 386,437.7894 C455.74,445.5794 473.86,449.1794 540,472.6194 C600.165,493.9444 664.3825,525.3419 714.87,552.2106 C740.1138,565.645 761.925,577.9472 778.0809,587.292 C786.1589,591.9645 792.823,595.8975 797.7955,598.8631 C798.4171,599.2338 793.8638,596.5082 794.4319,596.8483" fill="none" id="plsys-to-discord" style="stroke:#000000;stroke-width:1;"/><polygon fill="#000000" points="799.5803,599.9295,793.9118,591.8754,795.29,597.3618,789.8036,598.74,799.5803,599.9295" style="stroke:#000000;stroke-width:1;"/><text fill="#000000" font-family="Verdana" font-size="11" lengthAdjust="spacing" textLength="100.3267" x="281" y="405.8298">daemon.configure</text><text fill="#000000" font-family="Verdana" font-size="11" lengthAdjust="spacing" textLength="93.0918" x="284.6174" y="418.6345">platform.register</text><text fill="#000000" font-family="Verdana" font-size="11" lengthAdjust="spacing" textLength="76.0493" x="293.1387" y="431.4392">platform.start</text><text fill="#000000" font-family="Verdana" font-size="11" lengthAdjust="spacing" textLength="80.98" x="290.6733" y="444.2439">health.register</text><text fill="#000000" font-family="Verdana" font-size="11" lengthAdjust="spacing" textLength="79.9272" x="291.1997" y="457.0486">daemon.ready</text></g><!--link plsys to telegram--><g class="link" data-entity-1="ent0004" data-entity-2="ent0025" data-link-type="dependency" data-source-line="52" id="lnk33"><path d="M206.23,584.1294 C219.46,553.6894 248.53,498.0194 293,472.6194 C360.05,434.3294 389.29,463.5494 466.5,463.7894 C623.89,464.2794 1764.01,369.5994 1883,472.6194 C1888.3613,477.2606 1889.6599,517.129 1893.1946,523.067" fill="none" id="plsys-to-telegram" style="stroke:#000000;stroke-width:1;"/><polygon fill="#000000" points="1896.2636,528.2226,1895.0972,518.4431,1893.7061,523.9262,1888.2229,522.5351,1896.2636,528.2226" style="stroke:#000000;stroke-width:1;"/><text fill="#000000" font-family="Verdana" font-size="11" lengthAdjust="spacing" textLength="65.9839" x="396.5" y="431.8298">same hooks</text></g><!--link plsys to obs--><g class="link" data-entity-1="ent0004" data-entity-2="ent0029" data-link-type="dependency" data-source-line="53" id="lnk34"><path d="M259.01,625.8694 C320.1,645.3594 416.98,675.2194 502,696.8294 C518.73,701.0794 527.27,693.1694 540,704.8294 C551.08,714.9744 559.1288,728.0838 564.9672,742.0842 C566.4268,745.5843 567.7483,749.1401 568.9444,752.7193 C569.5425,754.5088 570.1092,756.3042 570.6462,758.1013 C570.9148,758.9999 571.1758,759.8989 571.4297,760.7979 C571.5566,761.2474 571.6817,761.6968 571.8051,762.1462 C571.8667,762.3709 570.361,756.8038 570.4217,757.0285" fill="none" id="plsys-to-obs" style="stroke:#000000;stroke-width:1;"/><polygon fill="#000000" points="571.9887,762.8202,573.4994,753.0879,570.6829,757.9938,565.7771,755.1772,571.9887,762.8202" style="stroke:#000000;stroke-width:1;"/><text fill="#000000" font-family="Verdana" font-size="11" lengthAdjust="spacing" textLength="87.9785" x="507" y="677.0398">daemon.startup</text><text fill="#000000" font-family="Verdana" font-size="11" lengthAdjust="spacing" textLength="75.9902" x="512.9941" y="689.8445">session.turn.*</text></g><!--link discord to pai--><g class="link" data-entity-1="ent0017" data-entity-2="ent0016" data-link-type="dependency" data-source-line="56" id="lnk35"><path d="M809.9999,508.1413 C810.1055,507.2143 810.2145,506.2871 810.3269,505.36 C810.7765,501.6517 811.2807,497.9454 811.8451,494.2627 C812.9739,486.8972 814.3438,479.6256 816,472.6194 C825.12,434.0594 828.11,422.9694 851,390.6194 C859.15,379.1094 865.4372,372.1674 875.7672,362.9774" fill="none" id="discord-to-pai" style="stroke:#000000;stroke-width:1;stroke-dasharray:7,7;"/><polygon fill="#000000" points="880.25,358.9894,870.8671,361.983,876.5144,362.3128,876.1845,367.96,880.25,358.9894" style="stroke:#000000;stroke-width:1;"/><text fill="#000000" font-family="Verdana" font-size="11" lengthAdjust="spacing" textLength="65.0762" x="856" y="431.8298">implements</text></g><!--reverse link pai to dpa--><g class="link" data-entity-1="ent0016" data-entity-2="ent0020" data-link-type="dependency" data-source-line="57" id="lnk37"><path d="M924.6382,364.5078 C942.0282,416.3478 978.93,526.3194 996.3,578.0994" fill="none" id="pai-backto-dpa" style="stroke:#000000;stroke-width:1;"/><polygon fill="#000000" points="922.73,358.8194,921.8,368.6242,924.3202,363.5598,929.3847,366.0799,922.73,358.8194" style="stroke:#000000;stroke-width:1;"/></g><!--link gw to rest--><g class="link" data-entity-1="ent0018" data-entity-2="ent0019" data-link-type="dependency" data-source-line="58" id="lnk38"><path d="M906.1501,862.7317 C923.3701,885.9917 944.7186,914.808 961.9186,938.028" fill="none" id="gw-rest" style="stroke:#000000;stroke-width:1;"/><polygon fill="#000000" points="902.58,857.9094,904.7202,867.5229,905.5551,861.928,911.15,862.7628,902.58,857.9094" style="stroke:#000000;stroke-width:1;"/><polygon fill="#000000" points="965.49,942.8494,963.3472,933.2365,962.5139,938.8316,956.9187,937.9983,965.49,942.8494" style="stroke:#000000;stroke-width:1;"/></g><!--link dpa to gw--><g class="link" data-entity-1="ent0020" data-entity-2="ent0018" data-link-type="dependency" data-source-line="59" id="lnk39"><path d="M988.35,632.0994 C982.64,641.3594 976.34,651.9494 971,661.8294 C941.33,716.6894 913.3798,778.409 898.9898,811.059" fill="none" id="dpa-to-gw" style="stroke:#000000;stroke-width:1;"/><polygon fill="#000000" points="896.57,816.5494,903.86,809.927,898.5865,811.974,896.5395,806.7006,896.57,816.5494" style="stroke:#000000;stroke-width:1;"/></g><!--link dpa to rest--><g class="link" data-entity-1="ent0020" data-entity-2="ent0019" data-link-type="dependency" data-source-line="60" id="lnk40"><path d="M1003.16,632.2294 C998.38,700.3894 986.0497,876.1241 981.8097,936.5841" fill="none" id="dpa-to-rest" style="stroke:#000000;stroke-width:1;"/><polygon fill="#000000" points="981.39,942.5694,986.0098,933.8713,981.7398,937.5816,978.0294,933.3116,981.39,942.5694" style="stroke:#000000;stroke-width:1;"/></g><!--link dpa to hitlr--><g class="link" data-entity-1="ent0020" data-entity-2="ent0021" data-link-type="dependency" data-source-line="61" id="lnk41"><path d="M1012.44,631.9794 C1025.76,678.4294 1051.726,769.0119 1063.656,810.6119" fill="none" id="dpa-to-hitlr" style="stroke:#000000;stroke-width:1;"/><polygon fill="#000000" points="1065.31,816.3794,1066.674,806.6254,1063.9317,811.5731,1058.984,808.8308,1065.31,816.3794" style="stroke:#000000;stroke-width:1;"/></g><!--link dpa to slash--><g class="link" data-entity-1="ent0020" data-entity-2="ent0022" data-link-type="dependency" data-source-line="62" id="lnk42"><path d="M1050.85,632.2394 C1079.59,650.1694 1116.14,675.8894 1143,704.8294 C1175.34,739.6694 1198.8123,784.1666 1211.6823,811.3466" fill="none" id="dpa-to-slash" style="stroke:#000000;stroke-width:1;"/><polygon fill="#000000" points="1214.25,816.7694,1214.0136,806.9234,1212.1102,812.2504,1206.7832,810.347,1214.25,816.7694" style="stroke:#000000;stroke-width:1;"/></g><!--link dpa to stream--><g class="link" data-entity-1="ent0020" data-entity-2="ent0023" data-link-type="dependency" data-source-line="63" id="lnk43"><path d="M1065.02,611.8094 C1130.57,621.0394 1235.09,644.7294 1302,704.8294 C1335.58,734.9894 1350.2604,781.8508 1356.8204,810.4908" fill="none" id="dpa-to-stream" style="stroke:#000000;stroke-width:1;"/><polygon fill="#000000" points="1358.16,816.3394,1360.0496,806.6735,1357.0437,811.4656,1352.2516,808.4596,1358.16,816.3394" style="stroke:#000000;stroke-width:1;"/></g><!--link dhp to rest--><g class="link" data-entity-1="ent0024" data-entity-2="ent0019" data-link-type="dependency" data-source-line="64" id="lnk44"><path d="M1474.87,857.8394 C1462.69,873.1094 1443.69,893.4594 1422,904.0394 C1355.3,936.5694 1146.529,952.7669 1042.939,959.0369" fill="none" id="dhp-to-rest" style="stroke:#000000;stroke-width:1;"/><polygon fill="#000000" points="1036.95,959.3994,1046.1752,962.8483,1041.9409,959.0973,1045.6919,954.8629,1036.95,959.3994" style="stroke:#000000;stroke-width:1;"/></g><!--reverse link pai to tpa--><g class="link" data-entity-1="ent0016" data-entity-2="ent0027" data-link-type="dependency" data-source-line="67" id="lnk46"><path d="M981.3567,337.1294 C1189.9967,351.0694 1856.54,400.8694 1919,472.6194 C2012.31,579.8094 1848.58,746.3494 1777.51,810.1494" fill="none" id="pai-backto-tpa" style="stroke:#000000;stroke-width:1;"/><polygon fill="#000000" points="975.37,336.7294,984.0833,341.3205,980.3589,337.0627,984.6166,333.3383,975.37,336.7294" style="stroke:#000000;stroke-width:1;"/></g><!--reverse link tbot to tpa--><g class="link" data-entity-1="ent0026" data-entity-2="ent0027" data-link-type="dependency" data-source-line="68" id="lnk47"><path d="M1685.6029,631.3967 C1698.0229,672.8267 1725.19,763.4594 1739.16,810.0594" fill="none" id="tbot-backto-tpa" style="stroke:#000000;stroke-width:1;"/><polygon fill="#000000" points="1683.88,625.6494,1682.6329,635.419,1685.3158,630.4388,1690.2959,633.1217,1683.88,625.6494" style="stroke:#000000;stroke-width:1;"/></g><!--link to to pai--><g class="link" data-entity-1="ent0013" data-entity-2="ent0016" data-link-type="dependency" data-source-line="71" id="lnk48"><path d="M666.38,168.6594 C687.83,186.3594 720.77,212.6894 751,233.4094 C788.79,259.3294 828.3843,282.8434 861.4443,301.6434" fill="none" id="to-to-pai" style="stroke:#000000;stroke-width:1;"/><polygon fill="#000000" points="866.66,304.6094,860.8138,296.6833,862.3136,302.1377,856.8592,303.6376,866.66,304.6094" style="stroke:#000000;stroke-width:1;"/><text fill="#000000" font-family="Verdana" font-size="11" lengthAdjust="spacing" textLength="54.2212" x="761.7202" y="213.6198">sendBody</text><text fill="#000000" font-family="Verdana" font-size="11" lengthAdjust="spacing" textLength="65.6616" x="756" y="226.4245">startStream</text></g><!--link rf to pai--><g class="link" data-entity-1="ent0014" data-entity-2="ent0016" data-link-type="dependency" data-source-line="72" id="lnk49"><path d="M812.42,168.8094 C833.08,201.7594 871.3222,262.7563 894.3822,299.5263" fill="none" id="rf-to-pai" style="stroke:#000000;stroke-width:1;"/><polygon fill="#000000" points="897.57,304.6094,896.177,294.8595,894.9135,300.3735,889.3995,299.11,897.57,304.6094" style="stroke:#000000;stroke-width:1;"/></g><!--link stc to pai--><g class="link" data-entity-1="ent0015" data-entity-2="ent0016" data-link-type="dependency" data-source-line="73" id="lnk50"><path d="M956.77,168.8094 C948.07,201.7594 932.1619,262.0382 922.4519,298.8082" fill="none" id="stc-to-pai" style="stroke:#000000;stroke-width:1;"/><polygon fill="#000000" points="920.92,304.6094,927.0853,296.929,922.1966,299.7751,919.3505,294.8864,920.92,304.6094" style="stroke:#000000;stroke-width:1;"/></g><!--link boot to db--><g class="link" data-entity-1="ent0003" data-entity-2="ent0005" data-link-type="dependency" data-source-line="76" id="lnk51"><path d="M106.58,352.4694 C120.24,362.8994 138.2,375.0794 156,382.6194 C172.29,389.5194 179.45,382.1794 195,390.6194 C235.6,412.6594 228.64,440.4394 268,464.6194 C277.94,470.7294 284.38,464.7694 293,472.6194 C326.18,502.8494 339.3054,550.1276 344.8054,578.6876" fill="none" id="boot-to-db" style="stroke:#000000;stroke-width:1;"/><polygon fill="#000000" points="345.94,584.5794,348.1659,574.9853,344.9945,579.6696,340.3102,576.4982,345.94,584.5794" style="stroke:#000000;stroke-width:1;"/></g><!--link boot to cp--><g class="link" data-entity-1="ent0003" data-entity-2="ent0006" data-link-type="dependency" data-source-line="77" id="lnk52"><path d="M104.85,352.6794 C118.49,363.7494 137.02,376.4994 156,382.6194 C172.5,387.9494 455.75,378.3494 468,390.6194 C519.83,442.5594 496.3834,536.1293 482.2334,578.4293" fill="none" id="boot-to-cp" style="stroke:#000000;stroke-width:1;"/><polygon fill="#000000" points="480.33,584.1194,486.9785,576.8532,481.9162,579.3776,479.3917,574.3153,480.33,584.1194" style="stroke:#000000;stroke-width:1;"/></g><!--link plsys to hr--><g class="link" data-entity-1="ent0004" data-entity-2="ent0010" data-link-type="dependency" data-source-line="78" id="lnk53"><path d="M151.03,625.7594 C135.96,634.5294 120.9,646.4094 112,661.8294 C83.44,711.3294 90.9309,776.5966 97.4609,810.6766" fill="none" id="plsys-to-hr" style="stroke:#000000;stroke-width:1;"/><polygon fill="#000000" points="98.59,816.5694,100.8249,806.9774,97.6491,811.6587,92.9678,808.4829,98.59,816.5694" style="stroke:#000000;stroke-width:1;"/><text fill="#000000" font-family="Verdana" font-size="11" lengthAdjust="spacing" textLength="80.98" x="117" y="683.5398">health.register</text></g><!--link plsys to sc--><g class="link" data-entity-1="ent0004" data-entity-2="ent0011" data-link-type="dependency" data-source-line="79" id="lnk54"><path d="M201.67,625.6494 C209.4,667.0794 226.3089,757.5613 235.0089,804.1613" fill="none" id="plsys-to-sc" style="stroke:#000000;stroke-width:1;"/><polygon fill="#000000" points="236.11,810.0594,238.3903,800.4781,235.1924,805.1443,230.5262,801.9463,236.11,810.0594" style="stroke:#000000;stroke-width:1;"/><text fill="#000000" font-family="Verdana" font-size="11" lengthAdjust="spacing" textLength="74.1855" x="233.3234" y="677.0398">platform.stop</text><text fill="#000000" font-family="Verdana" font-size="11" lengthAdjust="spacing" textLength="102.0723" x="219.38" y="689.8445">daemon.shutdown</text></g><!--link to to tq--><g class="link" data-entity-1="ent0013" data-entity-2="ent0007" data-link-type="dependency" data-source-line="80" id="lnk55"><path d="M579.5,151.7194 C502.91,157.8494 373.32,177.6694 284,241.4094 C258.67,259.4894 242.3939,285.4536 231.9239,305.8136" fill="none" id="to-to-tq" style="stroke:#000000;stroke-width:1;"/><polygon fill="#000000" points="229.18,311.1494,236.8531,304.9749,231.4666,306.7029,229.7387,301.3164,229.18,311.1494" style="stroke:#000000;stroke-width:1;"/></g><!--link to to pe--><g class="link" data-entity-1="ent0013" data-entity-2="ent0008" data-link-type="dependency" data-source-line="81" id="lnk56"><path d="M579.25,165.5894 C531.93,180.1094 467.63,204.6994 420,241.4094 C395.13,260.5794 377.7019,285.8335 365.9219,305.7735" fill="none" id="to-to-pe" style="stroke:#000000;stroke-width:1;"/><polygon fill="#000000" points="362.87,310.9394,370.8917,305.2251,365.4132,306.6345,364.0039,301.156,362.87,310.9394" style="stroke:#000000;stroke-width:1;"/></g><!--link to to hitl--><g class="link" data-entity-1="ent0013" data-entity-2="ent0009" data-link-type="dependency" data-source-line="82" id="lnk57"><path d="M625.35,168.8094 C594.19,203.7894 533.7615,271.5997 502.6115,306.5597" fill="none" id="to-to-hitl" style="stroke:#000000;stroke-width:1;"/><polygon fill="#000000" points="498.62,311.0394,507.5937,306.9808,501.9463,307.3063,501.6208,301.6588,498.62,311.0394" style="stroke:#000000;stroke-width:1;"/></g><!--link mc to plsys--><g class="link" data-entity-1="ent0030" data-entity-2="ent0004" data-link-type="dependency" data-source-line="85" id="lnk58"><path d="M674.18,816.5694 C669.59,779.4594 653.98,699.4294 603,661.8294 C547.3,620.7494 361.08,644.2794 293,631.8294 C284.09,630.1994 280.6261,629.5736 271.4861,627.3236" fill="none" id="mc-to-plsys" style="stroke:#000000;stroke-width:1;stroke-dasharray:7,7;"/><polygon fill="#000000" points="265.66,625.8894,273.443,631.9247,270.5151,627.0845,275.3552,624.1566,265.66,625.8894" style="stroke:#000000;stroke-width:1;"/><text fill="#000000" font-family="Verdana" font-size="11" lengthAdjust="spacing" textLength="106.1328" x="638.8" y="677.0398">session.turn.before</text><text fill="#000000" font-family="Verdana" font-size="11" lengthAdjust="spacing" textLength="96.7065" x="643.5131" y="689.8445">session.turn.after</text></g><g class="legend" data-source-line="87"><rect fill="none" height="386.4531" rx="7.5" ry="7.5" style="stroke:#000000;stroke-width:1;" width="417.5459" x="1582.7641" y="1018.8394"/><text fill="#000000" font-family="Verdana" font-size="14" font-weight="bold" lengthAdjust="spacing" textLength="40.2637" x="1600.6381" y="1046.8345">Hook</text><text fill="#000000" font-family="Verdana" font-size="14" font-weight="bold" lengthAdjust="spacing" textLength="38.1924" x="1791.1918" y="1046.8345">Type</text><text fill="#000000" font-family="Verdana" font-size="14" font-weight="bold" lengthAdjust="spacing" textLength="47.5029" x="1913.3862" y="1046.8345">Phase</text><text fill="#000000" font-family="Verdana" font-size="14" lengthAdjust="spacing" textLength="127.6885" x="1600.2143" y="1071.1314">daemon.configure</text><text fill="#000000" font-family="Verdana" font-size="14" lengthAdjust="spacing" textLength="97.3096" x="1790.768" y="1071.1314">SyncWaterfall</text><text fill="#000000" font-family="Verdana" font-size="14" lengthAdjust="spacing" textLength="32.2246" x="1912.9623" y="1071.1314">Boot</text><text fill="#000000" font-family="Verdana" font-size="14" lengthAdjust="spacing" textLength="118.4805" x="1600.2143" y="1095.4282">platform.register</text><text fill="#000000" font-family="Verdana" font-size="14" lengthAdjust="spacing" textLength="33.7422" x="1790.768" y="1095.4282">Sync</text><text fill="#000000" font-family="Verdana" font-size="14" lengthAdjust="spacing" textLength="32.2246" x="1912.9623" y="1095.4282">Boot</text><text fill="#000000" font-family="Verdana" font-size="14" lengthAdjust="spacing" textLength="103.0654" x="1600.2143" y="1119.7251">health.register</text><text fill="#000000" font-family="Verdana" font-size="14" lengthAdjust="spacing" textLength="33.7422" x="1790.768" y="1119.7251">Sync</text><text fill="#000000" font-family="Verdana" font-size="14" lengthAdjust="spacing" textLength="32.2246" x="1912.9623" y="1119.7251">Boot</text><text fill="#000000" font-family="Verdana" font-size="14" lengthAdjust="spacing" textLength="96.79" x="1600.2143" y="1144.022">platform.start</text><text fill="#000000" font-family="Verdana" font-size="14" lengthAdjust="spacing" textLength="41.7266" x="1790.768" y="1144.022">Async</text><text fill="#000000" font-family="Verdana" font-size="14" lengthAdjust="spacing" textLength="32.2246" x="1912.9623" y="1144.022">Boot</text><text fill="#000000" font-family="Verdana" font-size="14" lengthAdjust="spacing" textLength="111.9727" x="1600.2143" y="1168.3189">daemon.startup</text><text fill="#000000" font-family="Verdana" font-size="14" lengthAdjust="spacing" textLength="41.7266" x="1790.768" y="1168.3189">Async</text><text fill="#000000" font-family="Verdana" font-size="14" lengthAdjust="spacing" textLength="32.2246" x="1912.9623" y="1168.3189">Boot</text><text fill="#000000" font-family="Verdana" font-size="14" lengthAdjust="spacing" textLength="101.7256" x="1600.2143" y="1192.6157">daemon.ready</text><text fill="#000000" font-family="Verdana" font-size="14" lengthAdjust="spacing" textLength="41.7266" x="1790.768" y="1192.6157">Async</text><text fill="#000000" font-family="Verdana" font-size="14" lengthAdjust="spacing" textLength="32.2246" x="1912.9623" y="1192.6157">Boot</text><text fill="#000000" font-family="Verdana" font-size="14" lengthAdjust="spacing" textLength="124.2158" x="1600.2143" y="1216.9126">message.inbound</text><text fill="#000000" font-family="Verdana" font-size="14" lengthAdjust="spacing" textLength="41.7266" x="1790.768" y="1216.9126">Async</text><text fill="#000000" font-family="Verdana" font-size="14" lengthAdjust="spacing" textLength="59.1035" x="1912.9623" y="1216.9126">Runtime</text><text fill="#000000" font-family="Verdana" font-size="14" lengthAdjust="spacing" textLength="134.3809" x="1600.2143" y="1241.2095">message.outbound</text><text fill="#000000" font-family="Verdana" font-size="14" lengthAdjust="spacing" textLength="105.2939" x="1790.768" y="1241.2095">AsyncWaterfall</text><text fill="#000000" font-family="Verdana" font-size="14" lengthAdjust="spacing" textLength="59.1035" x="1912.9623" y="1241.2095">Runtime</text><text fill="#000000" font-family="Verdana" font-size="14" lengthAdjust="spacing" textLength="124.8311" x="1600.2143" y="1265.5064">message.reaction</text><text fill="#000000" font-family="Verdana" font-size="14" lengthAdjust="spacing" textLength="41.7266" x="1790.768" y="1265.5064">Async</text><text fill="#000000" font-family="Verdana" font-size="14" lengthAdjust="spacing" textLength="59.1035" x="1912.9623" y="1265.5064">Runtime</text><text fill="#000000" font-family="Verdana" font-size="14" lengthAdjust="spacing" textLength="135.0781" x="1600.2143" y="1289.8032">session.turn.before</text><text fill="#000000" font-family="Verdana" font-size="14" lengthAdjust="spacing" textLength="41.7266" x="1790.768" y="1289.8032">Async</text><text fill="#000000" font-family="Verdana" font-size="14" lengthAdjust="spacing" textLength="59.1035" x="1912.9623" y="1289.8032">Runtime</text><text fill="#000000" font-family="Verdana" font-size="14" lengthAdjust="spacing" textLength="123.0811" x="1600.2143" y="1314.1001">session.turn.after</text><text fill="#000000" font-family="Verdana" font-size="14" lengthAdjust="spacing" textLength="41.7266" x="1790.768" y="1314.1001">Async</text><text fill="#000000" font-family="Verdana" font-size="14" lengthAdjust="spacing" textLength="59.1035" x="1912.9623" y="1314.1001">Runtime</text><text fill="#000000" font-family="Verdana" font-size="14" lengthAdjust="spacing" textLength="173.6533" x="1600.2143" y="1338.397">session.segment.change</text><text fill="#000000" font-family="Verdana" font-size="14" lengthAdjust="spacing" textLength="33.7422" x="1790.768" y="1338.397">Sync</text><text fill="#000000" font-family="Verdana" font-size="14" lengthAdjust="spacing" textLength="59.1035" x="1912.9623" y="1338.397">Runtime</text><text fill="#000000" font-family="Verdana" font-size="14" lengthAdjust="spacing" textLength="94.418" x="1600.2143" y="1362.6939">platform.stop</text><text fill="#000000" font-family="Verdana" font-size="14" lengthAdjust="spacing" textLength="41.7266" x="1790.768" y="1362.6939">Async</text><text fill="#000000" font-family="Verdana" font-size="14" lengthAdjust="spacing" textLength="69.8975" x="1912.9623" y="1362.6939">Shutdown</text><text fill="#000000" font-family="Verdana" font-size="14" lengthAdjust="spacing" textLength="129.9102" x="1600.2143" y="1386.9907">daemon.shutdown</text><text fill="#000000" font-family="Verdana" font-size="14" lengthAdjust="spacing" textLength="41.7266" x="1790.768" y="1386.9907">Async</text><text fill="#000000" font-family="Verdana" font-size="14" lengthAdjust="spacing" textLength="69.8975" x="1912.9623" y="1386.9907">Shutdown</text><line style="stroke:#000000;stroke-width:1;" x1="1591.7641" x2="1991.31" y1="1029.8394" y2="1029.8394"/><line style="stroke:#000000;stroke-width:1;" x1="1591.7641" x2="1991.31" y1="1054.1363" y2="1054.1363"/><line style="stroke:#000000;stroke-width:1;" x1="1591.7641" x2="1991.31" y1="1078.4331" y2="1078.4331"/><line style="stroke:#000000;stroke-width:1;" x1="1591.7641" x2="1991.31" y1="1102.73" y2="1102.73"/><line style="stroke:#000000;stroke-width:1;" x1="1591.7641" x2="1991.31" y1="1127.0269" y2="1127.0269"/><line style="stroke:#000000;stroke-width:1;" x1="1591.7641" x2="1991.31" y1="1151.3238" y2="1151.3238"/><line style="stroke:#000000;stroke-width:1;" x1="1591.7641" x2="1991.31" y1="1175.6206" y2="1175.6206"/><line style="stroke:#000000;stroke-width:1;" x1="1591.7641" x2="1991.31" y1="1199.9175" y2="1199.9175"/><line style="stroke:#000000;stroke-width:1;" x1="1591.7641" x2="1991.31" y1="1224.2144" y2="1224.2144"/><line style="stroke:#000000;stroke-width:1;" x1="1591.7641" x2="1991.31" y1="1248.5113" y2="1248.5113"/><line style="stroke:#000000;stroke-width:1;" x1="1591.7641" x2="1991.31" y1="1272.8081" y2="1272.8081"/><line style="stroke:#000000;stroke-width:1;" x1="1591.7641" x2="1991.31" y1="1297.105" y2="1297.105"/><line style="stroke:#000000;stroke-width:1;" x1="1591.7641" x2="1991.31" y1="1321.4019" y2="1321.4019"/><line style="stroke:#000000;stroke-width:1;" x1="1591.7641" x2="1991.31" y1="1345.6988" y2="1345.6988"/><line style="stroke:#000000;stroke-width:1;" x1="1591.7641" x2="1991.31" y1="1369.9956" y2="1369.9956"/><line style="stroke:#000000;stroke-width:1;" x1="1591.7641" x2="1991.31" y1="1394.2925" y2="1394.2925"/><line style="stroke:#000000;stroke-width:1;" x1="1591.7641" x2="1591.7641" y1="1029.8394" y2="1394.2925"/><line style="stroke:#000000;stroke-width:1;" x1="1782.3178" x2="1782.3178" y1="1029.8394" y2="1394.2925"/><line style="stroke:#000000;stroke-width:1;" x1="1904.5121" x2="1904.5121" y1="1029.8394" y2="1394.2925"/><line style="stroke:#000000;stroke-width:1;" x1="1991.31" x2="1991.31" y1="1029.8394" y2="1394.2925"/></g><?plantuml-src ZLPDZzis4BthLqmtXpG1R210JuismAvtjraWGTorWLvyeQInH2n5CYGLGqaBz4Vq5_QNT4XAiaGhQNSFviSZ-URD6r8_k1eR12qObvbzvb8pmnh8MV5S6TNASgE4Cl3YuTx_Jn25QhIIADtETGB1OE6Oh0HE82KUMIlSWo8G_uBmviraKhEovBA2dxBCSKSxx6fLLShLi1LjnINiEkkmWN_--XlUAVMykZFyCqguCKND7PtM6imoJJnPXN1rnx1H4ZRAu1KmI_GCmjSCpZpXwbOf1plyrA8i8YgdaJbcO159H0u1geNjR89rp27StORvCfzFRYXgemH5msHFISyH-zP8-At5DawxJ_FfhHAywE1U4e-8q3X7l7lSlmSYKJo7QP95901aWWHzmefRPxg8Ccd0hIlLIHxaHYb3AM5EcO2qHVRdHE6jGKihcEEaytlMOKHf6aw53f5zf4GX7JlkvzGSzOHQTF2WJCESwtSpnrHYWsIM2sgkICGIp1rf9xWfcQRD3l9Hqi-HzOdMZC-32UczzhuFwrObjsIPCgOojjEeVgLidrW76y6f7v3LAGdfVhU7lM7IQcKYXEH9B7RNRpzmFiYUT3nSiuKiFo4hlF1sp7IQHi5iJJer3PDbH5a_j2GdbLslekyjMcPhL1wLAslzVUKS2goeeW_onsFhg_9Lp7O_32_kmzzbCJgusJvErNGvZVNmn533PikQESsMrqsZWGYjzGXT2alb5irdbdF1NPU4H7FVYkO3EiCBImaGWkwctgPDCJthPRZ7uCYDl_TiVmzb_Ww2bI_1rTjuoy0r59GPXvO8Xe6LuLNjQ7wmvZMKuS9R5qeUUKKK3tB8oDg4UlT5C0vPnumxo3heCG7qkz1fPPUUDMRm6YoZDw8czdO0zNoz92ENS4Yh3zAYjMJMDKadrwzzv8FdkQzAoGISWWhP4Czw_TRNAEt56oteHPBEPbGAi6hrAanbrGb-Nb4x55IOeWuLuD2SZSSA6Ngn4iPUj3qP-xoEA8uUIpcw6OrWKYBYJUUNpQx5bY875fqPz_4tKEPKE2a6IEZoLfLahg1NBCdC70T8HfVRsAO3_9D6LfCIumtG6yQR8J-twN7fC-EZDtHEakl9j2tWNB-KDQL78zZ-DHWeqwCqa1_32EyC4ViuBPMCl1wIs1juPe4SwIHCVC6EdbL6efCW44n7DVN7Bx5Aw7VVQVI_svfPQlZ92zVJqAwJnUyiI2q4zSCh7z4N5T73vwX4g4NCl91euCPUOEPLy5rCgBTbH4CQqOsqvZBtdryJq5Ch7MymmQdMpO1JAPPNcFuj-URM2xdxVzYGql-4MgnyVQ-BcZuOyIpt73tpvsJFuNib4NqSNGAImQBD_WK0?></g></svg>